<svg width="200" height="200" viewBox="0 0 200 200" fill="none" xmlns="http://www.w3.org/2000/svg">
<path d="M55.3323 139.668C50.0979 139.668 47.3635 137.422 45.9768 135.527C43.0667 131.563 44.1213 126.797 44.6878 124.922C44.9807 123.965 45.3128 122.734 45.6838 121.289C48.0081 112.363 52.344 95.7227 64.9026 87.8906C73.3596 82.6172 90.0589 80.7422 102.871 80.7422C110.645 80.7422 129.805 81.5039 139.864 88.6133C154.629 99.0234 158.36 126.465 158.516 127.637C158.535 127.832 158.555 128.027 158.555 128.242C158.555 135.41 154.278 139.688 147.11 139.688H55.3323V139.668Z" fill="white"/>
<path d="M102.872 85.3711C116.583 85.3711 130.294 87.5 137.208 92.3828C150.489 101.758 153.946 128.242 153.946 128.242C153.946 132.012 152.462 135.078 147.11 135.078H55.3131C48.2819 135.078 48.028 129.688 49.0631 126.328C51.1334 119.707 54.3366 99.9414 67.3248 91.8359C73.8483 87.7539 88.3795 85.3711 102.872 85.3711ZM102.872 76.1328V85.3516V76.1328C89.4147 76.1328 71.7389 78.2031 62.442 83.9844C48.3209 92.793 43.692 110.586 41.192 120.137C40.8209 121.543 40.5084 122.754 40.2545 123.535C38.5748 128.906 39.2975 134.258 42.2272 138.242C43.8873 140.488 47.7741 144.258 55.3131 144.258H147.11C156.856 144.258 163.165 137.949 163.165 128.203C163.165 127.813 163.145 127.402 163.087 127.012C162.676 123.887 158.633 96.1914 142.52 84.8242C131.797 77.2656 113.087 76.1328 102.872 76.1328Z" fill="#262626"/>
<path d="M87.8516 137.07V98.2422L114.707 98.5352V137.07H87.8516Z" fill="#262626"/>
<path d="M90.625 101.035L111.953 101.25V134.297H90.625V101.035ZM85.0977 95.4492V139.844H117.48V95.8008L112.012 95.7422L90.6836 95.5078L85.0977 95.4492Z" fill="#262626"/>
<path d="M36.5826 100.645C46.0553 72.0704 71.3678 64.9414 101.29 64.9414C129.571 64.9414 151.954 72.0704 163.067 100.664C173.477 127.442 126.583 99.1799 101.29 99.1799C75.9967 99.1799 27.5592 127.852 36.5826 100.645Z" fill="#FF6C4A"/>
<path d="M55.4094 75.3517C55.4094 75.3517 50.468 94.336 63.7102 107.91L72.1673 105.43C72.1673 105.43 61.7375 92.0118 63.8274 70.5275L55.4094 75.3517ZM92.8509 64.8244C92.8509 64.8244 89.9017 82.8126 95.1751 99.4727C95.1751 99.4727 98.7299 98.0274 106.425 99.3751C106.425 99.3751 100.195 79.9415 104.667 64.5119C104.648 64.4924 98.5541 64.0041 92.8509 64.8244ZM134.785 70.3322C130.136 91.172 134.785 106.738 134.785 106.738L145.117 109.844C145.117 109.844 142.949 90.0587 144.101 75.3712C144.101 75.3517 137.46 71.1916 134.785 70.3322Z" fill="#FFAF9F"/>
<path d="M101.289 64.9414C129.57 64.9414 151.953 72.0703 163.066 100.664C166.406 109.277 163.847 112.188 157.968 112.188C145.566 112.188 118.457 99.1602 101.289 99.1602C84.1208 99.1602 56.3279 112.363 43.0271 112.363C36.7185 112.363 33.6911 109.395 36.5818 100.645C46.0544 72.0703 71.3669 64.9414 101.289 64.9414ZM101.289 55.7227C75.7419 55.7227 40.3318 60.0781 27.8318 97.7539C26.9333 100.469 24.199 108.711 29.0036 115.391C31.0544 118.223 35.1365 121.602 43.0271 121.602C50.6443 121.602 60.2536 118.652 71.3669 115.215C81.7575 112.012 93.5544 108.398 101.289 108.398C109.16 108.398 120.879 112.051 131.211 115.273C141.758 118.574 150.879 121.406 157.968 121.406C165.547 121.406 169.433 118.047 171.347 115.234C175.996 108.457 172.734 100.059 171.66 97.3047C157.324 60.4492 126.523 55.7227 101.289 55.7227Z" fill="#262626"/>
<circle cx="95.5" cy="118.5" r="2.5" fill="white"/>
<circle cx="107.5" cy="118.5" r="2.5" fill="white"/>
<path d="M97 128C100.41 130.499 102.388 130.47 106 128" stroke="white" stroke-width="3" stroke-linecap="round"/>
</svg>
